<svg width="128" height="128" viewBox="0 0 128 128" fill="none" xmlns="http://www.w3.org/2000/svg">
<path d="M119.927 52.8845C119.189 41.1516 114.829 29.9432 107.456 20.8238C100.082 11.7044 90.0634 5.12909 78.7971 2.0156C67.5309 -1.0979 55.5797 -0.594209 44.6117 3.45639C33.6436 7.507 24.2061 14.9024 17.6163 24.6103C3.66189 45.0443 5.87399 72.4116 17.964 93.1426C24.6336 104.616 34.1996 114.111 45.6921 120.664C48.7084 122.342 51.8117 123.855 54.9889 125.199C58.0955 126.529 61.4354 128.283 64.9149 127.961C68.3277 127.322 71.6198 126.148 74.6715 124.483C77.534 123.219 80.3225 121.792 83.0235 120.208C92.9888 114.276 101.466 106.117 107.799 96.364C114.133 86.6105 118.154 75.5227 119.552 63.9568C119.971 60.2821 120.096 56.5794 119.927 52.8845ZM35.9858 30.0957C47.966 16.4707 69.5427 13.9824 84.6249 23.9059C91.7979 28.7207 97.073 35.9068 99.5377 44.2212C102.002 52.5356 101.501 61.4554 98.1218 69.4376C95.6574 75.066 91.8629 80.0029 87.0688 83.8184C82.2747 87.6338 76.6263 90.2121 70.6156 91.3287C68.3178 91.7667 65.9812 91.965 63.6429 91.9203C61.6939 91.8719 57.94 90.6888 56.2151 91.9664C54.7259 93.069 55.6386 94.945 56.0046 96.34C56.6164 98.4315 56.6021 100.658 55.9635 102.742C55.258 104.517 54.0454 106.041 52.479 107.123C50.9126 108.204 49.0627 108.795 47.163 108.819C40.5587 108.736 37.0975 100.497 34.9838 95.4215C26.6249 75.2867 20.7023 48.4258 35.9972 30.0842L35.9858 30.0957Z" fill="#FFB514"/>
</svg>
